<svg width="250" height="251" viewBox="0 0 250 251" fill="none" xmlns="http://www.w3.org/2000/svg">
<path d="M225.455 65.8788L164.849 5.27272C164.154 4.64129 163.25 4.29032 162.311 4.28787H66.5912C60.2386 4.28786 54.1456 6.80883 49.6501 11.2973C45.1546 15.7857 42.624 21.8747 42.6139 28.2273V104.78H39.6215C35.3318 104.78 31.2179 106.484 28.1846 109.518C25.1513 112.551 23.4473 116.665 23.4473 120.955V194.326C23.4573 198.589 25.1578 202.674 28.1758 205.685C31.1937 208.695 35.2827 210.386 39.5457 210.386H42.6518V222.773C42.6618 229.119 45.1872 235.202 49.6746 239.689C54.1619 244.177 60.2452 246.702 66.5912 246.712H202.652C208.998 246.702 215.081 244.177 219.568 239.689C224.056 235.202 226.581 229.119 226.591 222.773V68.6818C226.604 68.1616 226.51 67.6442 226.315 67.1619C226.119 66.6797 225.827 66.2429 225.455 65.8788ZM42.5761 129.591H39.6215C37.4348 129.446 35.3849 128.475 33.8875 126.875C32.39 125.275 31.5568 123.165 31.5568 120.973C31.5568 118.782 32.39 116.672 33.8875 115.072C35.3849 113.472 37.4348 112.501 39.6215 112.356H42.5761V129.591ZM219.015 222.773C219.005 227.11 217.278 231.266 214.212 234.333C211.145 237.399 206.989 239.126 202.652 239.136H66.5912C62.2478 239.136 58.0817 237.414 55.007 234.346C51.9322 231.278 50.1997 227.116 50.1897 222.773V210.386H169.811C170.816 210.386 171.779 209.987 172.489 209.277C173.2 208.567 173.599 207.603 173.599 206.598V133.341C173.599 132.336 173.2 131.373 172.489 130.662C171.779 129.952 170.816 129.553 169.811 129.553H50.1897V28.2273C50.1997 23.8839 51.9322 19.7218 55.007 16.6541C58.0817 13.5864 62.2478 11.8636 66.5912 11.8636H158.523V48.3788C158.508 51.5339 159.116 54.6609 160.312 57.5806C161.508 60.5003 163.268 63.1553 165.492 65.3934C167.716 67.6314 170.36 69.4085 173.272 70.6228C176.184 71.8371 179.307 72.4647 182.462 72.4697H219.015V222.773ZM59.6973 152.432H67.917L74.9245 163.795L81.7806 152.432H89.9245L79.0912 169.364L90.9094 187.318H82.5003L74.9245 175.235L67.3488 187.318H58.5609L70.4927 169.098L59.6973 152.432ZM119.356 181.447V187.318H94.6973V152.735H101.743V181.447H119.356ZM143.144 175.083C142.468 174.356 141.602 173.831 140.644 173.568C139.811 173.265 137.917 172.773 135 172.053C132.117 171.515 129.396 170.323 127.046 168.568C125.344 167.129 124.229 165.115 123.915 162.908C123.601 160.701 124.108 158.456 125.341 156.598C126.411 155.009 127.926 153.77 129.697 153.038C131.892 152.246 134.223 151.899 136.553 152.015C140.087 151.761 143.595 152.783 146.44 154.894C147.516 155.844 148.383 157.009 148.983 158.313C149.583 159.618 149.904 161.034 149.925 162.47L142.879 162.773C142.714 161.318 142.028 159.973 140.947 158.985C139.613 158.037 137.998 157.57 136.364 157.659C134.663 157.557 132.975 158.009 131.553 158.947C131.207 159.189 130.926 159.513 130.734 159.889C130.543 160.266 130.447 160.684 130.455 161.106C130.458 161.517 130.555 161.922 130.739 162.29C130.923 162.658 131.188 162.978 131.515 163.227C133.501 164.388 135.684 165.172 137.955 165.538C140.568 166.077 143.11 166.916 145.531 168.038C147.085 168.87 148.392 170.098 149.318 171.598C150.278 173.279 150.75 175.194 150.682 177.129C150.698 179.134 150.118 181.098 149.015 182.773C147.892 184.503 146.247 185.83 144.318 186.561C141.906 187.497 139.329 187.935 136.743 187.848C133.1 188.082 129.495 186.993 126.591 184.78C124.079 182.474 122.558 179.283 122.349 175.879L129.205 175.235C129.432 177.152 130.315 178.932 131.705 180.273C133.154 181.421 134.972 182.001 136.818 181.902C138.639 182.031 140.447 181.522 141.932 180.462C142.46 180.07 142.892 179.562 143.193 178.978C143.495 178.394 143.66 177.748 143.675 177.091C143.736 176.38 143.549 175.671 143.144 175.083Z" fill="#808080"/>
</svg>
