<svg width="257" height="450" viewBox="0 0 257 450" fill="none" xmlns="http://www.w3.org/2000/svg">
<path d="M221.392 313.395C213.725 304.248 213.893 291.483 221.767 284.883C229.641 278.284 242.239 280.349 249.906 289.495C257.572 298.641 257.404 311.407 249.53 318.006C241.655 324.605 229.058 322.541 221.392 313.395Z" fill="#11368E"/>
<path opacity="0.4" d="M221.392 313.395C213.725 304.248 213.893 291.483 221.767 284.883C229.641 278.284 242.239 280.349 249.906 289.495C257.572 298.641 257.404 311.407 249.53 318.006C241.655 324.605 229.058 322.541 221.392 313.395Z" fill="black"/>
<path d="M11.25 62.7515L0 22.3344L39.7422 38.8698L248.873 288.37L220.381 312.253L11.25 62.7515Z" fill="#11368E"/>
<path d="M10.4998 26.6853C9.61361 30.7394 7.11928 32.8638 2.97266 33.0295L11.2507 62.7516C11.2507 62.7516 19.087 67.1094 18.6508 57.2825C18.6508 57.2825 27.2078 60.1758 26.7757 50.4732C26.7757 50.4732 34.2076 52.2594 33.8639 44.5321C33.8639 44.5321 40.0507 45.7261 39.7443 38.8684L10.4998 26.6853Z" fill="#EF8274"/>
<path opacity="0.3" d="M26.8984 50.4235L237.559 298.436L244.191 292.876C244.988 291.681 33.9852 44.4838 33.9852 44.4838C34.3303 52.2097 26.8984 50.4235 26.8984 50.4235Z" fill="white"/>
<path opacity="0.3" d="M18.7423 57.3516C18.9839 62.7695 16.709 63.8738 14.6191 63.7744L223.807 310.053L230.44 304.493C231.198 303.357 39.9503 79.2042 21.6411 57.7491C20.0647 57.7947 18.7423 57.3516 18.7423 57.3516Z" fill="white"/>
<path d="M222.234 315.987L252.413 290.69L248.331 285.82L218.152 311.117L222.234 315.987Z" fill="#263238"/>
<path d="M170.977 408.652L171.004 434.788L157.848 435.731L153.224 411.178C159.242 407.17 165.162 406.213 170.977 408.652Z" fill="#FFB463"/>
<path d="M170.547 431.888C171.842 435.338 171.926 449.451 171.926 449.451L144.039 449.481C142.382 444.378 144.946 440.894 148.198 440.431C149.596 440.234 151.24 438.801 152.438 437.548C152.447 437.386 154.151 429.546 155.206 429.172C155.206 429.172 155.932 428.356 156.55 429.17C157.169 429.983 157.706 432.634 157.706 432.634C162.06 427.235 166.326 427.956 170.547 431.888Z" fill="#263238"/>
<path d="M170.885 435.985C167.734 434.826 164.353 435.266 161.605 437.194C161.125 437.533 160.668 436.743 161.145 436.409C164.072 434.355 167.771 433.873 171.127 435.109C171.674 435.309 171.438 436.189 170.885 435.985Z" fill="white"/>
<path d="M144.123 447.416L171.6 447.387C171.851 447.387 172.056 447.183 172.056 446.931C172.056 446.68 171.851 446.477 171.6 446.477L144.123 446.508C143.871 446.508 143.667 446.712 143.667 446.963C143.667 447.213 143.871 447.416 144.123 447.416Z" fill="white"/>
<path d="M113.715 405.244L113.747 434.741L101.088 435.705L94.8594 408.095C99.9433 404.321 105.846 402.472 113.715 405.244Z" fill="#FFB463"/>
<path d="M114.247 431.949C115.541 435.397 115.625 449.51 115.625 449.51L83.5873 449.545C81.9308 444.441 85.3928 441.416 88.6449 440.953C90.0432 440.756 94.9393 438.859 96.1388 437.607C96.1471 437.444 97.852 429.605 98.9066 429.231C98.9066 429.231 99.6325 428.415 100.251 429.23C100.869 430.043 101.406 432.693 101.406 432.693C105.76 427.294 110.025 428.016 114.247 431.949Z" fill="#263238"/>
<path d="M114.083 436.047C110.931 434.888 107.551 435.328 104.802 437.255C104.322 437.593 103.865 436.804 104.343 436.47C107.269 434.416 110.969 433.934 114.324 435.169C114.871 435.369 114.635 436.25 114.083 436.047Z" fill="white"/>
<path d="M83.586 447.482L115.301 447.448C115.553 447.448 115.757 447.243 115.757 446.992C115.757 446.741 115.553 446.538 115.301 446.538L83.5874 446.572C83.3361 446.572 83.1318 446.777 83.1318 447.028C83.1305 447.278 83.3334 447.482 83.586 447.482Z" fill="white"/>
<path d="M173.485 423.166L147.597 424.702C141.789 403.711 136.049 328.443 135.456 305.847C134.746 278.847 126.079 211.083 133.743 196.983C141.408 182.882 176.077 194.112 176.077 194.112C176.077 194.112 171.757 276.622 173.485 302.936C174.981 325.743 177.297 392.784 173.485 423.166Z" fill="#091F54"/>
<path d="M121.782 423.166L96.1178 424.702C92.9941 401.463 80.441 316.837 81.4721 300.626C82.731 280.825 97.5962 195.115 103.123 188.507C108.65 181.898 149.118 199.028 149.118 199.028C149.118 199.028 132.486 272.732 119.373 304.61C116.649 311.232 123.889 394.903 121.782 423.166Z" fill="#091F54"/>
<g opacity="0.3">
<path d="M139.29 248.35C139.781 247.147 140.274 245.943 140.731 244.717C143.17 238.167 145.016 231.35 146.48 224.395C150.702 223.893 154.872 222.86 158.935 221.309C159.45 221.113 159.229 220.131 158.712 220.329C152.285 222.783 145.607 223.922 138.868 223.712C138.325 223.696 138.327 224.712 138.868 224.728C141.116 224.799 143.358 224.705 145.589 224.478C144.12 231.387 142.281 238.166 139.831 244.665C137.379 251.172 134.402 257.363 131.33 263.465C131.047 264.026 131.776 264.537 132.056 263.979C134.32 259.483 136.523 254.933 138.51 250.251C138.694 255.836 139.25 273.095 139.875 295.961C140.956 335.42 149.249 399.578 151.567 416.881H152.42C150.138 399.851 141.798 335.46 140.716 295.926C139.977 268.899 139.336 249.689 139.29 248.35Z" fill="white"/>
<path d="M169.964 302.23C162.501 301.742 155.028 301.985 147.597 302.956C147.063 303.027 147.06 304.043 147.597 303.972C155.028 303 162.502 302.758 169.964 303.246C170.507 303.282 170.504 302.266 169.964 302.23Z" fill="white"/>
<path d="M86.0811 302.319C86.6608 289.931 99.4348 237.349 99.5645 236.82C99.6294 236.551 99.5024 236.268 99.2788 236.189C99.0565 236.111 98.8219 236.264 98.7556 236.533C98.2283 238.7 85.8243 289.757 85.2404 302.261C84.738 313.015 98.0571 412.442 98.6231 416.67C98.6562 416.92 98.8357 417.096 99.0386 417.096C99.0607 417.096 99.0841 417.095 99.1062 417.089C99.3354 417.044 99.4913 416.783 99.4541 416.505C99.3147 415.473 85.5828 312.963 86.0811 302.319Z" fill="white"/>
<path d="M93.3392 231.376C102.962 226.989 106.073 214.239 108.363 203.335C108.497 202.7 107.685 202.431 107.551 203.065C105.346 213.558 102.418 226.154 93.1143 230.396C92.6132 230.625 92.8326 231.606 93.3392 231.376Z" fill="white"/>
<path d="M114.881 303.208C108.627 302.733 102.372 302.256 96.1177 301.782C95.5766 301.74 95.5793 302.758 96.1177 302.799C102.372 303.274 108.627 303.75 114.881 304.225C115.422 304.266 115.419 303.249 114.881 303.208Z" fill="white"/>
</g>
<path d="M124.417 29.3121C123.793 29.1644 123.136 29.8546 122.938 30.8071C122.741 31.7595 123.086 32.614 123.71 32.7617C124.334 32.9094 124.991 32.2192 125.188 31.2667C125.452 30.3143 125.042 29.4598 124.417 29.3121Z" fill="#263238"/>
<path d="M122.659 41.9149C121.006 42.0019 119.399 41.3531 118.272 40.1398C120.665 38.0264 122.753 35.5928 124.483 32.9108L122.659 41.9149Z" fill="#F98412"/>
<path d="M129.312 26.4865C128.349 25.3932 126.92 24.8245 125.468 24.9584C125.157 24.9984 124.869 24.79 124.811 24.4822C124.761 24.1688 124.975 23.8762 125.287 23.8251C127.141 23.6112 128.981 24.3165 130.216 25.7148C130.436 25.9385 130.436 26.296 130.216 26.5196C130.109 26.6204 129.969 26.6783 129.822 26.6839C129.63 26.7142 129.435 26.6383 129.312 26.4865Z" fill="#263238"/>
<path d="M135.588 59.0673C137.297 65.9347 137.56 73.2299 127.702 75.5793C127.702 75.5793 118.255 84.5337 136.328 84.5337C152.741 84.5337 155.157 75.5793 155.157 75.5793C148.98 69.6975 150.705 53.5127 152.43 44.6908L135.588 59.0673Z" fill="#FFB463"/>
<path d="M157.798 28.1319C156.063 19.281 147.481 13.5124 138.629 15.2475C126.206 17.5804 121.081 34.6514 121.458 45.6929C121.869 57.9492 135.242 66.2632 145.989 59.0176C153.153 54.2029 154.384 47.2859 157.49 35.7032C158.186 33.2392 158.291 30.6455 157.798 28.1319Z" fill="#FFB463"/>
<path d="M165.114 26.7336C167.533 25.298 167.802 19.3183 164.933 15.7569C165.27 17.8592 165.076 19.5571 164.642 20.9264C163.623 17.4189 160.33 13.6933 156.931 13.0127C148.717 11.3701 142.407 3.97684 139.762 0C138.497 4.32193 142.079 8.42853 142.079 8.42853C139.532 8.36227 132.484 5.07698 131.185 2.05397C130.383 5.2164 130.798 8.56656 132.351 11.4363C129.064 10.7227 125.63 11.4985 122.969 13.5552C125.172 13.4254 127.314 14.3089 128.786 15.9543C127.031 16.3822 125.199 16.3822 123.446 15.9543C125.551 19.2699 128.759 21.6345 133.189 22.5621C129.107 25.2787 131.399 31.8837 132.417 35.7032C127.883 41.9301 134.553 46.564 136.18 51.6078C137.429 55.6164 147.238 57.9658 151.823 55.8635C154.222 54.7785 154.467 52.1006 158.132 47.9278C161.081 44.5693 166.254 37.9712 165.114 30.248C165.808 31.0472 166.577 32.1584 167.366 33.7321C167.484 30.9064 166.466 27.7509 165.114 26.7336Z" fill="#263238"/>
<path d="M133.158 29.6241C129.69 30.6428 127.818 35.6535 127.621 38.8574C127.391 42.3732 129.74 44.706 132.879 42.3732C135.27 40.5759 137.002 38.0402 137.808 35.1607C138.695 31.6946 136.624 28.6054 133.158 29.6241Z" fill="#FFB463"/>
<path d="M127.774 75.1859C127.774 75.1859 132.018 73.4494 130.095 70.0482C136.338 68.2247 151.218 68.3862 154.505 69.3552C157.511 70.2428 160.132 73.5419 158.802 75.9906L127.774 75.1859Z" fill="#263238"/>
<path opacity="0.8" d="M127.774 75.1859C127.774 75.1859 132.018 73.4494 130.095 70.0482C136.338 68.2247 151.218 68.3862 154.505 69.3552C157.511 70.2428 160.132 73.5419 158.802 75.9906L127.774 75.1859Z" fill="#FFDE21"/>
<path d="M178.516 121.595C178.516 121.595 188.145 138.51 187.966 139.283L159.711 158.763L162.673 167.937C162.673 167.937 200.197 155.362 203.674 143.282C207.151 131.204 192.145 108.877 192.145 108.877L178.516 121.595Z" fill="#FFB463"/>
<path d="M165.965 157.913C165.965 157.913 163.861 154.452 160.599 153.697C157.337 152.942 154.933 151.471 152.469 151.077C150.005 150.684 152.173 153.259 153.605 154.397C155.036 155.534 156.647 156.837 155.619 157.775C154.592 158.712 142.914 161.304 141.637 162.766C140.359 164.228 142.38 164.399 142.38 164.399C142.38 164.399 139.561 165.106 139.536 166.298C139.529 166.608 140.018 167.339 141.353 167.219C144.356 166.949 150.632 166.054 150.632 166.054C150.27 166.098 142.605 167.755 141.488 168.152C140.03 168.673 139.607 169.661 139.937 170.497C140.404 171.687 149.98 169.958 150.434 170.168C150.434 170.168 144.888 170.979 144.314 172.525C143.739 174.071 147.258 173.751 150.307 172.88C153.102 172.081 158.795 171.246 161.557 170.158C164.961 168.818 166.946 167.153 167.121 163.727C167.3 160.295 165.965 157.913 165.965 157.913Z" fill="#FFB463"/>
<path opacity="0.3" d="M142.731 164.232C145.005 163.723 147.302 163.317 149.613 163.017" stroke="black" stroke-width="0.25" stroke-miterlimit="10" stroke-linecap="round" stroke-linejoin="round"/>
<path opacity="0.3" d="M152.598 169.923C151.193 167.262 150.592 164.182 150.895 161.187" stroke="black" stroke-width="0.25" stroke-miterlimit="10" stroke-linecap="round" stroke-linejoin="round"/>
<path opacity="0.3" d="M156.749 158.762C157.192 159.906 158.044 160.886 159.114 161.484C160.185 162.081 161.466 162.293 162.672 162.07" stroke="black" stroke-width="0.25" stroke-miterlimit="10" stroke-linecap="round" stroke-linejoin="round"/>
<path d="M167.626 127.779C175.186 127 195.751 118.532 194.626 110.657C192.56 96.2005 181.705 106.456 171.163 111.706L167.626 127.779Z" fill="black" fill-opacity="0.3"/>
<path d="M162.634 104.81C164.653 113.167 168.808 120.855 174.694 127.122L197.401 109.806C197.401 109.806 183.015 79.0358 171.693 76.4393C160.127 73.7766 158.756 89.6605 162.634 104.81Z" fill="#FFDE21"/>
<path opacity="0.2" d="M162.043 102.099C162.207 102.986 162.405 103.889 162.634 104.793C164.653 113.15 168.808 120.839 174.694 127.106L175.696 126.334C175.285 116.706 173.216 105.631 167.07 99.5521L162.043 102.099Z" fill="black"/>
<path d="M170.112 75.9147C181.613 78.7735 179.971 95.5367 179.971 111.785C179.971 136.699 180.216 178.451 179.1 202.406C179.073 204.177 174.442 206.06 172.825 206.344C158.957 208.262 120.526 208.742 107.777 205.99C106.292 205.622 95.072 203.4 94.9795 201.756C111.881 174.202 101.369 100.386 102.24 91.5074C103.161 82.3086 106.201 79.5216 109.355 77.9756C121.674 71.9006 161.667 73.7655 170.112 75.9147Z" fill="#FFDE21"/>
<path d="M105 155C113.466 148.909 129.876 132.141 127.788 113.804C125.699 95.4661 107.238 118.44 98.2683 132.219L105 155Z" fill="black" fill-opacity="0.3"/>
<path d="M103.864 95.5422C103.272 98.3678 102.631 101.457 101.941 104.464C101.251 107.47 100.495 110.445 99.7396 113.401C98.2833 119.188 96.4847 124.883 94.3506 130.456C93.3995 132.921 92.24 135.302 90.8831 137.57C90.411 138.383 89.8603 139.148 89.2405 139.853L88.7974 140.313L88.3212 140.756C88.0741 141.035 88.0092 141.216 87.6144 141.38C86.9367 141.529 86.2299 141.46 85.5936 141.183C84.5252 140.766 83.5147 140.214 82.5871 139.54C82.0115 139.195 81.4538 138.767 80.9445 138.374C80.7609 138.231 80.5635 138.073 80.3675 137.914C79.0686 131.025 70.6745 128.236 70.6745 128.236L63.2979 124.845L63.3793 137.438L65.6624 140.444L72.1626 143.655C72.2482 143.879 72.3365 144.099 72.4317 144.322C72.81 145.209 73.2696 146.08 73.7459 146.95C74.8101 148.777 76.1394 150.439 77.6896 151.879C79.5614 153.653 81.8072 154.984 84.2615 155.773C87.1064 156.641 90.1322 156.72 93.0186 156.004C93.7101 155.841 94.3906 155.631 95.056 155.38C95.702 155.14 96.3328 154.859 96.9457 154.542C98.1701 153.878 99.3158 153.079 100.363 152.159C102.06 150.698 103.583 149.042 104.898 147.23C107.078 144.166 108.954 140.897 110.501 137.471C113.327 131.226 115.661 124.771 117.484 118.165C118.405 114.945 119.193 111.774 119.933 108.487C120.673 105.201 121.346 102.096 121.904 98.6287L103.864 95.5422Z" fill="#FFB463"/>
<path d="M99.8046 88.7246C95.7229 98.5114 92.7468 108.723 90.9316 119.17L116.907 132.742C116.907 132.742 140.255 110.463 130.396 90.7454C124.762 79.3919 107.379 71.9158 99.8046 88.7246Z" fill="#FFDE21"/>
</svg>
