<svg width="194" height="450" viewBox="0 0 194 450" fill="none" xmlns="http://www.w3.org/2000/svg">
<g clip-path="url(#clip0_126_790)">
<path d="M94.1883 404.231L89.8665 437.787H79.7008L77.0898 404.854L94.1883 404.231Z" fill="#EF8274"/>
<path d="M94.122 430.686H89.5797C88.5513 430.686 87.6 431.206 86.993 432.036C84.373 435.614 82.4039 434.262 79.5544 430.898C77.7423 430.686 77.2545 432.766 77.1081 433.324L73.7119 445.678C73.4174 446.71 74.0139 447.785 75.0453 448.081C75.228 448.134 75.4183 448.159 75.6101 448.155C81.1263 448.155 83.7372 448.155 90.6035 448.155H111.604C117.329 448.155 118.516 442.386 116.157 441.852C105.553 439.508 98.0451 436.388 94.7668 433.303C94.1582 432.763 94.7819 432.359 94.122 430.686Z" fill="#263238"/>
<path d="M103.401 434.125C103.88 433.78 104.165 433.231 104.173 432.642C104.214 432.326 104.069 432.015 103.803 431.841C102.379 430.833 96.6996 433.487 96.0609 433.8C95.9899 433.826 95.934 433.882 95.9083 433.953C95.8615 434.084 95.9295 434.227 96.0609 434.276C97.4562 434.606 98.8832 434.789 100.318 434.824C101.393 434.924 102.474 434.679 103.401 434.125ZM103.445 432.27C103.561 432.343 103.62 432.479 103.593 432.612C103.569 433.036 103.364 433.432 103.03 433.694C101.74 434.658 98.625 434.242 96.9488 433.931C99.3075 432.892 102.66 431.722 103.445 432.27Z" fill="#11368E"/>
<path d="M96.2524 434.332C97.9587 433.62 101.532 430.816 101.34 429.333C101.31 429.022 101.088 428.651 100.316 428.546C97.2022 428.19 95.8673 433.782 95.8673 434.019C95.8371 434.114 95.8658 434.22 95.9413 434.286C95.9987 434.303 96.0606 434.303 96.1195 434.286L96.2524 434.332ZM100.212 429.007C100.79 429.066 100.79 429.274 100.79 429.348C100.953 430.253 98.3574 432.581 96.5045 433.56C96.8896 432.255 98.0312 428.992 100.005 428.992L100.212 429.007Z" fill="#11368E"/>
<path d="M47.7088 402.484L37.8028 436.16L27.7412 435.573L29.8674 399.028L47.7088 402.484Z" fill="#EF8274"/>
<path d="M42.8403 431.222H38.2965C37.2681 431.222 36.3168 431.742 35.7097 432.572C33.0898 436.15 31.1207 434.798 28.2712 431.434C26.4591 431.222 25.9713 433.302 25.8248 433.86L22.4287 446.214C22.1342 447.246 22.7307 448.321 23.7621 448.617C23.9448 448.67 24.1351 448.694 24.3269 448.691C29.8431 448.691 32.454 448.691 39.3203 448.691H60.3208C66.0455 448.691 67.2324 442.922 64.8737 442.388C54.27 440.044 46.7619 436.924 43.4836 433.839C42.878 433.299 43.5017 432.894 42.8403 431.222Z" fill="#263238"/>
<path d="M52.1196 434.659C52.5983 434.315 52.8837 433.765 52.8912 433.176C52.9305 432.861 52.7871 432.55 52.5198 432.376C51.0958 431.367 45.4164 434.022 44.7777 434.333C44.7067 434.359 44.6508 434.415 44.6251 434.486C44.5783 434.617 44.6463 434.76 44.7777 434.809C46.173 435.139 47.6 435.324 49.0345 435.357C50.1112 435.46 51.1924 435.215 52.1196 434.659ZM52.1649 432.805C52.2812 432.877 52.3401 433.013 52.3129 433.146C52.2887 433.57 52.0834 433.966 51.7496 434.229C50.46 435.192 47.3448 434.777 45.6686 434.466C48.0273 433.429 51.3782 432.257 52.1649 432.805Z" fill="#11368E"/>
<path d="M44.9721 434.868C46.677 434.156 50.2513 431.352 50.0595 429.869C50.0293 429.558 49.8073 429.187 49.0357 429.084C45.9219 428.728 44.587 434.32 44.587 434.557C44.5568 434.652 44.5855 434.757 44.661 434.824C44.7184 434.84 44.7803 434.84 44.8392 434.824L44.9721 434.868ZM48.9315 429.543C49.5098 429.602 49.5098 429.81 49.5098 429.884C49.6729 430.789 47.0771 433.117 45.2243 434.096C45.6093 432.791 46.7525 429.528 48.7246 429.528L48.9315 429.543Z" fill="#11368E"/>
<path d="M99.8124 153.201C99.8124 153.201 112.035 177.767 100.279 222.937C88.5231 268.108 47.3195 426.192 47.3195 426.192L22.3535 423.193C22.3535 423.193 24.5008 366.27 43.12 320.752C43.12 320.752 53.5304 231.841 51.8527 229.157C48.8099 216.433 45.6689 202.968 50.924 183.694C52.9792 175.444 55.8846 167.273 59.4649 159.563C62.923 152.648 61.9022 150.037 61.9022 150.037L99.8124 153.201Z" fill="#11368E"/>
<path opacity="0.5" d="M99.8124 153.201C99.8124 153.201 112.035 177.767 100.279 222.937C88.5231 268.108 47.3195 426.192 47.3195 426.192L22.3535 423.193C22.3535 423.193 24.5008 366.27 43.12 320.752C43.12 320.752 53.5304 231.841 51.8527 229.157C48.8099 216.433 45.6689 202.968 50.924 183.694C52.9792 175.444 55.8846 167.273 59.4649 159.563C62.923 152.648 61.9022 150.037 61.9022 150.037L99.8124 153.201Z" fill="black"/>
<path opacity="0.5" d="M69.6309 214.905C69.6309 214.905 78.9057 232.765 83.1082 235.737C86.6871 238.267 85.2631 267.955 85.5002 276.351C85.5183 276.981 85.5424 279.521 85.5424 279.521L81.7537 294.064C82.0436 293.232 82.4362 267.934 79.4146 241.34C78.3953 232.386 69.6309 225.112 69.6309 214.905Z" fill="black"/>
<path d="M115.906 149.433C116.296 152.47 117.122 155.433 118.362 158.232C122.493 168.726 127.005 201.727 126.003 218.427C124.092 253.045 127.192 262.974 116.512 327.23C112.484 351.458 103.323 383.107 95.8193 427.154H72.3211C72.3211 427.154 73.3963 371.99 84.2703 323.431C84.2703 323.431 88.0908 255.008 82.4039 237.167C78.4279 224.754 67.2262 212.74 70.0953 186.498C72.9644 160.256 79.9319 151.283 79.9319 151.283L115.906 149.433Z" fill="#11368E"/>
<path opacity="0.5" d="M115.906 149.433C116.296 152.47 117.122 155.433 118.362 158.232C122.493 168.726 127.005 201.727 126.003 218.427C126.111 239.143 125.581 284.352 116.512 327.23C105.63 378.673 95.8193 427.154 95.8193 427.154H72.3211C72.3211 427.154 73.3963 371.99 84.2703 323.431C84.2703 323.431 88.0908 255.008 82.4039 237.167C78.4279 224.754 67.2262 212.74 70.0953 186.498C72.9644 160.256 79.9319 151.283 79.9319 151.283L115.906 149.433Z" fill="black"/>
<path d="M37.8547 92.816C37.8547 92.816 17.6107 134.444 26.0641 137.867C34.5174 141.291 63.0078 143.208 63.0078 143.208L75.4372 155.102L82.6281 150.417L80.813 138.316L64.4771 134.858L42.6612 128.081C40.8506 127.474 39.8751 125.514 40.4822 123.703C40.5139 123.611 40.5486 123.52 40.5864 123.43L51.1312 100.298L37.8547 92.816Z" fill="#EF8274"/>
<path d="M91.9197 22.5602C91.7989 21.4669 92.2867 20.5005 93.0191 20.4386C93.7499 20.3767 94.4113 21.1966 94.5291 22.3065C94.6469 23.4164 94.1622 24.3663 93.4298 24.4282C92.6989 24.4901 92.0209 23.6671 91.9197 22.5602Z" fill="#263238"/>
<path d="M91.5166 24.1382L98.6381 30.6783C97.0661 32.356 94.795 33.1926 92.5102 32.9389L91.5166 24.1382Z" fill="#D7504D"/>
<path d="M89.7148 20.1638C89.9277 20.1336 90.115 20.0037 90.2161 19.8149C90.9365 18.3245 92.3257 17.2674 93.9551 16.97C94.3054 16.9307 94.5591 16.6151 94.5198 16.2632C94.4896 15.9054 94.1771 15.6381 93.8192 15.6638C91.7549 16.0096 89.9836 17.3278 89.0609 19.2049C88.8888 19.5084 88.9915 19.895 89.292 20.0716C89.4128 20.1622 89.5683 20.1955 89.7148 20.1638Z" fill="#263238"/>
<path d="M53.9196 27.5767C57.0289 41.2489 58.0557 47.1049 66.195 53.0531C78.055 58.524 94.5948 55.1898 95.6126 40.8321C96.5458 27.9331 91.3089 7.78727 76.8576 4.43492C66.5634 2.03845 56.2769 8.44113 53.8804 18.7353C53.2039 21.6452 53.2175 24.6729 53.9196 27.5767Z" fill="#EF8274"/>
<path opacity="0.2" d="M80.5876 49.4591C80.5876 49.4591 89.4939 52.9805 94.5934 45.5676C92.1939 51.8299 86.0631 54.9859 79.2874 55.4616L77.3379 53.4985L79.1319 50.43L80.5876 49.4591Z" fill="black"/>
<path d="M60.0059 67.5602C60.0059 67.5602 68.7023 65.0731 65.655 48.7961C65.655 48.7961 73.1676 43.6045 79.3241 47.4778C85.4807 51.3512 77.3928 64.3951 84.8193 67.9513C84.8193 67.9513 79.7455 72.8575 60.0059 67.5602Z" fill="#EF8274"/>
<path d="M82.9424 29.3857C81.2466 27.0315 86.0304 23.0721 84.8209 20.4341C85.0202 13.4937 83.6868 14.0993 83.9028 6.6924C84.1187 -0.714478 75.8979 2.34794 75.8979 2.34794C75.8979 2.34794 58.2226 -2.91465 52.4964 15.398C44.0445 24.4871 44.561 38.7074 53.6501 47.1592C57.8073 51.025 63.2737 53.1738 68.9501 53.1753L70.1898 53.1149C75.2924 52.4082 79.3635 48.5017 80.2771 43.4309L82.9424 29.3857Z" fill="#263238"/>
<path d="M56.4458 20.5126C56.9185 16.1893 56.4202 12.5877 52.0968 12.1151C47.7735 11.6424 46.8886 15.1186 46.416 19.442C45.9433 23.7653 46.0973 27.323 50.4237 27.779C54.75 28.2351 55.9551 24.8329 56.4458 20.5126Z" fill="#11368E"/>
<path d="M79.2754 27.8893C81.7081 29.4039 83.4326 31.8306 84.0608 34.6257C84.8822 38.2846 81.5012 40.0167 78.0446 38.8192C74.9671 37.7606 70.8718 34.5366 71.5785 30.8687C72.092 28.2261 74.65 26.4985 77.2941 27.012C78.0114 27.1524 78.6879 27.4514 79.2754 27.8893Z" fill="#EF8274"/>
<path d="M82.8032 0.842422C81.3082 2.33135 79.6758 4.5874 80.6634 6.5369C81.2191 7.65435 82.4861 8.23269 83.2154 9.25803C83.9116 10.4661 84.203 11.8659 84.0475 13.2522C83.9916 18.2973 83.528 23.3289 82.6612 28.3C87.1159 23.0193 91.8696 17.4411 93.2242 10.6412C93.6893 8.62078 93.6364 6.51574 93.0701 4.52095C92.4601 2.51407 90.9485 0.905854 88.9824 0.173471C87.0223 -0.459247 82.8032 0.842422 82.8032 0.842422Z" fill="#263238"/>
<path d="M122.514 88.7042L140.168 105.547C141.441 106.772 143.466 106.733 144.691 105.46C144.74 105.409 144.787 105.356 144.833 105.301L166.996 79.144L175.934 65.0445L177.994 63.5299L191.308 56.1109C191.911 55.7757 192.671 55.9659 193.042 56.5473C193.439 57.168 193.243 57.994 192.61 58.37L184.868 62.9787L186.265 66.9879C187.977 70.7872 186.662 75.2691 183.168 77.5403L172.319 84.5938C172.319 84.5938 157.555 118.285 147.681 124.147C139.84 128.807 110.951 98.4955 110.951 98.4955L122.514 88.7042Z" fill="#EF8274"/>
<path d="M43.9055 77.7245C43.5023 76.5104 44.5095 73.8965 43.2954 74.2996C42.9043 74.4295 40.6588 76.7097 40.387 77.0208C38.2775 79.372 34.7771 84.0169 31.1469 93.559L27.4639 103.396L46.2385 116.326L53.3087 105.557L43.9055 77.7245Z" fill="#FFDE21"/>
<path opacity="0.2" d="M41.8662 89.272L43.9229 86.6279L47.9503 89.6707L53.3095 105.558L46.2394 116.328L42.6439 113.856C43.7508 103.707 41.8662 89.272 41.8662 89.272Z" fill="black"/>
<path d="M116.631 152.517C95.1938 156.683 70.6115 154.972 61.6054 154.125C59.5653 153.918 63.3345 129.923 41.6907 86.4451C39.4845 82.3392 40.4101 77.2533 43.921 74.1878C58.6502 62.0001 85.4101 62.4667 97.6855 63.4528C102.028 63.7578 105.979 66.0727 108.369 69.7105C112.641 76.9482 115.521 84.9229 116.857 93.2207C118.302 101.114 119.13 109.108 119.329 117.13C119.897 136.111 117.599 152.326 116.631 152.517Z" fill="#FFDE21"/>
<path opacity="0.2" d="M118.277 117.589C111.362 116.275 101.646 90.776 101.646 90.776L115.805 93.6799C117.25 101.574 118.076 109.567 118.277 117.589Z" fill="black"/>
<path d="M101.038 64.1792C106.38 65.804 118.135 71.0938 136.564 88.4852L119.418 111.342C113.813 105.332 106.566 98.6177 102.699 90.3184C99.1939 82.9629 97.4211 74.9037 97.5132 66.7553C97.5343 65.2468 98.7726 64.0402 100.281 64.0614C100.536 64.0644 100.792 64.1037 101.038 64.1792Z" fill="#FFDE21"/>
<path d="M51.856 19.4088L51.702 15.4901C46.1117 11.0173 37.1253 11.6213 32.1844 16.8039C28.9438 20.2015 27.5515 24.9492 26.7874 29.5821C26.0233 34.215 25.7696 38.9656 24.3169 43.4294C22.8627 47.8947 19.9332 52.1893 15.5313 53.8217C12.253 55.0373 8.50497 54.6643 5.33383 56.1381C0.534831 58.3685 -1.5098 65.0717 1.22796 69.6004C3.79356 73.8452 10.0014 75.2571 14.2327 72.7745C12.8585 74.1155 13.079 76.9106 14.654 78.2591C16.4948 79.8356 19.228 79.8099 21.5792 79.221C27.0652 77.8453 31.7933 73.7395 33.9224 68.4995C34.605 70.3796 36.8037 71.3838 38.7969 71.2161C40.7902 71.0485 42.5842 69.9447 44.132 68.6792C50.9183 63.1312 54.2147 54.1977 54.8157 45.4529C55.4122 36.7066 53.6303 27.9935 51.856 19.4088Z" fill="#263238"/>
</g>
<defs>
<clipPath id="clip0_126_790">
<rect width="193.289" height="450" fill="white"/>
</clipPath>
</defs>
</svg>
